HIERARCHY
ROOT Hips
{
 OFFSET 0.000000 0.000000 0.000000
 CHANNELS 6 Xposition Yposition Zposition Yrotation Xrotation Zrotation
 JOINT Chest
 {
  OFFSET 0.000000 9.585900 0.002600
  CHANNELS 3 Yrotation Xrotation Zrotation
  JOINT Chest2
  {
   OFFSET 0.000000 9.601200 -0.005300
   CHANNELS 3 Yrotation Xrotation Zrotation
   JOINT Chest3
   {
    OFFSET 0.000000 9.561800 0.000000
    CHANNELS 3 Yrotation Xrotation Zrotation
    JOINT Chest4
    {
     OFFSET 0.000000 9.552100 0.000000
     CHANNELS 3 Yrotation Xrotation Zrotation
     JOINT Neck
     {
      OFFSET 0.000000 14.453000 0.000000
      CHANNELS 3 Yrotation Xrotation Zrotation
      JOINT Head
      {
       OFFSET 0.000000 8.936500 -0.011300
       CHANNELS 3 Yrotation Xrotation Zrotation
       End Site
       {
        OFFSET 0.000000 17.073600 -0.006000
       }
      }
     }
     JOINT RightCollar
     {
      OFFSET -2.921100 9.558500 0.000000
      CHANNELS 3 Yrotation Xrotation Zrotation
      JOINT RightShoulder
      {
       OFFSET -13.519700 0.000000 0.000000
       CHANNELS 3 Yrotation Xrotation Zrotation
       JOINT RightElbow
       {
        OFFSET 0.000000 -29.696600 0.000000
        CHANNELS 3 Yrotation Xrotation Zrotation
        JOINT RightWrist
        {
         OFFSET 0.000000 -24.004700 0.000000
         CHANNELS 3 Yrotation Xrotation Zrotation
         End Site
         {
          OFFSET 0.000000 -17.728500 0.000000
         }
        }
       }
      }
     }
     JOINT LeftCollar
     {
      OFFSET 2.921100 9.558500 0.000000
      CHANNELS 3 Yrotation Xrotation Zrotation
      JOINT LeftShoulder
      {
       OFFSET 13.519700 0.000000 0.000000
       CHANNELS 3 Yrotation Xrotation Zrotation
       JOINT LeftElbow
       {
        OFFSET 0.000000 -29.696600 0.000000
        CHANNELS 3 Yrotation Xrotation Zrotation
        JOINT LeftWrist
        {
         OFFSET 0.000000 -24.004700 0.000000
         CHANNELS 3 Yrotation Xrotation Zrotation
         End Site
         {
          OFFSET 0.000000 -17.728500 0.000000
         }
        }
       }
      }
     }
    }
   }
  }
 }
 JOINT RightHip
 {
  OFFSET -7.771700 -0.012900 -0.001300
  CHANNELS 3 Yrotation Xrotation Zrotation
  JOINT RightKnee
  {
   OFFSET 0.000000 -40.869800 0.001200
   CHANNELS 3 Yrotation Xrotation Zrotation
   JOINT RightAnkle
   {
    OFFSET 0.000000 -39.717900 0.002100
    CHANNELS 3 Yrotation Xrotation Zrotation
    JOINT RightToe
    {
     OFFSET 0.000000 -4.965400 11.033500
     CHANNELS 3 Yrotation Xrotation Zrotation
     End Site
     {
      OFFSET 0.000000 -1.423100 5.872300
     }
    }
   }
  }
 }
 JOINT LeftHip
 {
  OFFSET 7.771700 -0.012900 -0.001300
  CHANNELS 3 Yrotation Xrotation Zrotation
  JOINT LeftKnee
  {
   OFFSET 0.000000 -40.869800 0.001200
   CHANNELS 3 Yrotation Xrotation Zrotation
   JOINT LeftAnkle
   {
    OFFSET 0.000000 -39.717900 0.002100
    CHANNELS 3 Yrotation Xrotation Zrotation
    JOINT LeftToe
    {
     OFFSET 0.000000 -4.965400 11.033500
     CHANNELS 3 Yrotation Xrotation Zrotation
     End Site
     {
      OFFSET 0.000000 -1.423100 5.872300
     }
    }
   }
  }
 }
}
MOTION
Frames: 14
Frame Time: 0.008333
-189.671069 57.620709 -60.291089 157.716265 -9.295458 0.527891 3.920687 6.514178 1.097448 0.166561 0.295436 0.012753 0.292764 0.509957 0.022929 3.527760 6.196827 0.450544 0.532420 19.219259 -1.319582 1.379568 -0.110344 -2.568549 2.727410 9.209917 0.360795 -8.055943 -10.673399 -7.834553 -120.789857 -81.772340 141.472444 -3.659554 4.314208 -27.997827 -4.938838 8.927279 -2.101554 23.489446 -6.699972 0.025247 141.432606 -78.542844 -167.082127 -4.227613 9.868080 7.291905 -15.137747 -62.629048 8.661054 -30.682695 71.665964 -30.764974 -2.581241 -5.450509 -2.494545 -0.160170 0.656037 -0.068800 4.158411 -65.195862 15.442590 39.214954 67.265421 31.961360 -16.301699 -10.555818 5.099332 -0.207651 -0.784235 -0.095546
-189.672173 57.621428 -60.292016 157.713233 -9.292357 0.532426 3.922760 6.513533 1.093084 0.166172 0.300591 0.012147 0.292337 0.512713 0.023303 3.529689 6.202601 0.449128 0.533440 19.208374 -1.321770 1.383846 -0.113219 -2.571929 2.736073 9.195498 0.348929 -8.051156 -10.667830 -7.831319 -120.703853 -81.776851 141.418832 -3.661899 4.300697 -28.035262 -4.923064 8.920475 -2.087983 23.477903 -6.705018 0.018430 141.439697 -78.543098 -167.088030 -4.233437 9.873308 7.293655 -15.127933 -62.633422 8.652106 -30.678208 71.667505 -30.758291 -2.575859 -5.448347 -2.497959 -0.158404 0.655092 -0.068210 4.176205 -65.198809 15.429608 39.214312 67.270910 31.952812 -16.288599 -10.556749 5.111870 -0.261202 -0.795192 -0.106166
-189.674310 57.622083 -60.291614 157.720355 -9.280899 0.535744 3.914749 6.507393 1.087272 0.166454 0.304555 0.011166 0.291740 0.514323 0.023242 3.527936 6.207466 0.444375 0.538715 19.196799 -1.320353 1.390716 -0.113895 -2.582204 2.749914 9.180454 0.340842 -8.058113 -10.664858 -7.820555 -120.695395 -81.775938 141.411572 -3.663490 4.314730 -28.014897 -4.912799 8.906221 -2.076007 23.473740 -6.704096 0.019144 141.471859 -78.546008 -167.120117 -4.251480 9.884575 7.271613 -15.132000 -62.645153 8.648942 -30.676712 71.666683 -30.756147 -2.574509 -5.448658 -2.498336 -0.159636 0.656771 -0.069157 4.204013 -65.210499 15.390171 39.198922 67.266316 31.944451 -16.269032 -10.555571 5.116151 -0.256641 -0.799539 -0.107833
-189.675264 57.622956 -60.290949 157.723982 -9.272008 0.529720 3.911369 6.507151 1.091183 0.168030 0.303426 0.009866 0.290140 0.510914 0.024876 3.525651 6.207888 0.443810 0.537220 19.197533 -1.324652 1.395090 -0.121407 -2.590158 2.760450 9.174664 0.331517 -8.034701 -10.652906 -7.828606 -120.658844 -81.774115 141.370770 -3.654477 4.332554 -27.998312 -4.907464 8.901611 -2.072962 23.469233 -6.701790 0.031534 141.482684 -78.543558 -167.133920 -4.257517 9.891103 7.263048 -15.146467 -62.648703 8.664543 -30.687884 71.658228 -30.766585 -2.566818 -5.451009 -2.497456 -0.157844 0.662063 -0.070082 4.192440 -65.219594 15.397395 39.195180 67.264675 31.940139 -16.257942 -10.555254 5.115959 -0.252806 -0.802927 -0.107432
-189.679600 57.623782 -60.289938 157.730132 -9.254556 0.538220 3.907960 6.504408 1.076333 0.165978 0.297778 0.012380 0.289883 0.508645 0.024483 3.523330 6.204778 0.444115 0.537724 19.196027 -1.328325 1.397018 -0.124365 -2.596616 2.764624 9.170685 0.329907 -7.973660 -10.636461 -7.866395 -120.580282 -81.771609 141.278454 -3.665200 4.306004 -28.041456 -4.899849 8.898602 -2.060029 23.458291 -6.695733 0.036105 141.566037 -78.554106 -167.229180 -4.248609 9.890054 7.267235 -15.142025 -62.667168 8.649952 -30.675832 71.655718 -30.752814 -2.561180 -5.450848 -2.496504 -0.162261 0.665157 -0.072499 4.222259 -65.236730 15.360873 39.176659 67.263386 31.923717 -16.272018 -10.547233 5.113547 -0.252122 -0.807082 -0.102356
-189.684032 57.624564 -60.287776 157.745646 -9.231149 0.540138 3.892799 6.483527 1.069680 0.165057 0.304598 0.011873 0.291400 0.508191 0.022656 3.517019 6.204118 0.442713 0.539644 19.191104 -1.330930 1.400421 -0.142605 -2.612453 2.782311 9.160077 0.317331 -7.958295 -10.625662 -7.870621 -120.502232 -81.777034 141.207789 -3.665404 4.304744 -28.055937 -4.884650 8.894147 -2.040304 23.447653 -6.692567 0.034698 141.616173 -78.562822 -167.292030 -4.241561 9.889441 7.272096 -15.160617 -62.690244 8.653069 -30.670398 71.651940 -30.748201 -2.558632 -5.449818 -2.494632 -0.165612 0.667002 -0.074081 4.234599 -65.258712 15.332110 39.168345 67.252407 31.916292 -16.280052 -10.544694 5.106105 -0.251455 -0.802991 -0.098973
-189.686863 57.625780 -60.287165 157.750575 -9.220078 0.535591 3.888757 6.481593 1.072735 0.163105 0.304345 0.010337 0.290280 0.517047 0.022017 3.518988 6.193618 0.442651 0.535155 19.185773 -1.340103 1.405647 -0.150678 -2.609570 2.796294 9.146524 0.284231 -7.964694 -10.611497 -7.845718 -120.473885 -81.778268 141.183875 -3.652489 4.314641 -28.048443 -4.880614 8.888999 -2.030766 23.436273 -6.701248 0.063696 141.549336 -78.560895 -167.228615 -4.224139 9.885811 7.286267 -15.177829 -62.699417 8.667005 -30.667663 71.649944 -30.746016 -2.556992 -5.446543 -2.493547 -0.166833 0.664617 -0.075134 4.244863 -65.270555 15.319107 39.173764 67.246002 31.926074 -16.282103 -10.554659 5.106908 -0.240601 -0.794509 -0.098130
-189.690519 57.627277 -60.288446 157.740262 -9.217172 0.539928 3.895314 6.488227 1.067555 0.165699 0.302007 0.010702 0.289861 0.519497 0.022121 3.513511 6.192760 0.440156 0.541480 19.176496 -1.342647 1.407462 -0.156834 -2.610388 2.805664 9.135949 0.269904 -7.962078 -10.602645 -7.838070 -120.453369 -81.779625 141.173411 -3.642711 4.326458 -28.041014 -4.868532 8.885632 -2.012436 23.431351 -6.707104 0.070391 141.523191 -78.562691 -167.212346 -4.226110 9.891696 7.287669 -15.163230 -62.702927 8.663061 -30.664390 71.648049 -30.746298 -2.555350 -5.444695 -2.489314 -0.168478 0.664349 -0.076483 4.316055 -65.278195 15.258790 39.181073 67.248427 31.949859 -16.263659 -10.576630 5.117895 -0.241521 -0.787814 -0.103449
-189.694236 57.628723 -60.289660 157.736534 -9.213015 0.541671 3.898934 6.493400 1.064179 0.165818 0.295093 0.012114 0.289100 0.524555 0.022403 3.515946 6.193753 0.437490 0.540431 19.166130 -1.343813 1.408521 -0.191912 -2.626266 2.805043 9.126304 0.256791 -7.947503 -10.594837 -7.841831 -120.436211 -81.803235 141.206633 -3.637194 4.317853 -28.040048 -4.864155 8.882561 -1.990556 23.428402 -6.708648 0.063522 141.493368 -78.562120 -167.186882 -4.261595 9.910084 7.252884 -15.164882 -62.704025 8.663491 -30.656768 71.644803 -30.738996 -2.547661 -5.451518 -2.489774 -0.171797 0.671514 -0.077781 4.339662 -65.283225 15.235173 39.184579 67.251751 31.959755 -16.250157 -10.598061 5.122679 -0.243961 -0.781854 -0.106511
-189.698623 57.629917 -60.290133 157.737694 -9.202253 0.543859 3.896148 6.493526 1.061695 0.165705 0.294981 0.012109 0.290389 0.516532 0.021663 3.515853 6.198660 0.435645 0.541953 19.155679 -1.345608 1.408445 -0.198149 -2.627792 2.807582 9.117979 0.242678 -7.932263 -10.588854 -7.860238 -120.387773 -81.794198 141.170758 -3.634672 4.319344 -28.036293 -4.860985 8.877776 -1.974989 23.429697 -6.709918 0.062844 141.534853 -78.566119 -167.242739 -4.262602 9.911956 7.246362 -15.172185 -62.714155 8.668911 -30.642063 71.643984 -30.730104 -2.549525 -5.451198 -2.485530 -0.178156 0.672796 -0.079577 4.351662 -65.295117 15.218396 39.189584 67.253231 31.968026 -16.250441 -10.609481 5.123617 -0.238072 -0.784098 -0.105739
-189.702637 57.631033 -60.291028 157.736207 -9.193689 0.545590 3.898981 6.500599 1.062449 0.164739 0.287647 0.011232 0.290157 0.516083 0.021708 3.516704 6.201112 0.437791 0.542215 19.141839 -1.354428 1.406567 -0.203532 -2.629055 2.807615 9.108872 0.225687 -7.933576 -10.587709 -7.852748 -120.417389 -81.806050 141.228711 -3.627210 4.322241 -28.031643 -4.861848 8.869287 -1.968211 23.429743 -6.717801 0.101883 141.409358 -78.548890 -167.136430 -4.265284 9.912990 7.247001 -15.174259 -62.722471 8.672152 -30.632056 71.643018 -30.722849 -2.552441 -5.449320 -2.484673 -0.171221 0.669660 -0.078714 4.355924 -65.304628 15.213357 39.176915 67.264152 31.953151 -16.237068 -10.621864 5.129632 -0.227968 -0.788660 -0.105452
-189.703453 57.632024 -60.291346 157.734654 -9.188269 0.529573 3.903238 6.496955 1.079374 0.164121 0.292902 0.010346 0.290030 0.515628 0.021757 3.519113 6.196659 0.439134 0.544780 19.135725 -1.361359 1.408292 -0.221578 -2.639342 2.805320 9.106621 0.219679 -7.923289 -10.586770 -7.871369 -120.387505 -81.799673 141.207943 -3.619528 4.324251 -28.024215 -4.864401 8.866660 -1.965793 23.430095 -6.723663 0.121348 141.411760 -78.544383 -167.158107 -4.266339 9.914335 7.239271 -15.207157 -62.720317 8.712173 -30.630986 71.637913 -30.721692 -2.552453 -5.448011 -2.487048 -0.167368 0.668792 -0.077135 4.320554 -65.311581 15.252905 39.166370 67.273054 31.941347 -16.219514 -10.648138 5.131271 -0.231285 -0.773753 -0.104935
-189.706213 57.632764 -60.292217 157.735558 -9.180618 0.527267 3.904100 6.490775 1.082994 0.167665 0.299877 0.011596 0.288278 0.510614 0.022150 3.516729 6.194230 0.436271 0.548126 19.133984 -1.366955 1.415004 -0.239279 -2.652702 2.806622 9.102091 0.203427 -7.922219 -10.590725 -7.907098 -120.167218 -81.764632 140.986369 -3.616708 4.324975 -28.020194 -4.869324 8.869788 -1.952399 23.435625 -6.729231 0.128533 141.493387 -78.545136 -167.279769 -4.246600 9.917895 7.250610 -15.219333 -62.724088 8.721161 -30.626444 71.634432 -30.714623 -2.553816 -5.454086 -2.487569 -0.159185 0.674247 -0.079263 4.318008 -65.320724 15.256726 39.176998 67.274915 31.951806 -16.243840 -10.657474 5.132312 -0.210542 -0.772009 -0.101116
-189.708984 57.633308 -60.293398 157.734738 -9.173742 0.528762 3.907326 6.490967 1.080839 0.165908 0.294628 0.012033 0.290376 0.516073 0.021580 3.518869 6.194753 0.435016 0.545556 19.126305 -1.366767 1.424858 -0.252344 -2.671184 2.801502 9.078010 0.173880 -7.926828 -10.575237 -7.902044 -120.144792 -81.766209 140.993667 -3.614340 4.322045 -28.020372 -4.877540 8.861262 -1.935260 23.440629 -6.728375 0.131154 141.498799 -78.543113 -167.302485 -4.249223 9.918267 7.236270 -15.218936 -62.730721 8.720759 -30.627798 71.633363 -30.713927 -2.556779 -5.455870 -2.488960 -0.163596 0.673906 -0.078154 4.327489 -65.328401 15.246700 39.191135 67.274761 31.966820 -16.256639 -10.664971 5.134207 -0.249125 -0.782530 -0.106570
